<svg fill="none" height="300" viewBox="0 0 300 300" width="300" xmlns="http://www.w3.org/2000/svg" xmlns:xlink="http://www.w3.org/1999/xlink"><linearGradient id="a" gradientUnits="userSpaceOnUse" x1="45" x2="228.75" y1="18.75" y2="281.25"><stop offset="0" stop-color="#1be4af"/><stop offset="1" stop-color="#619ccc"/></linearGradient><circle cx="150" cy="150" fill="url(#a)" r="150"/><circle cx="150" cy="150" fill="#ffd140" r="150"/><circle cx="150" cy="150" fill="#fff" r="112.5"/><path d="m147.75 216c-8.875 0-17.063-1.625-24.563-4.875-7.374-3.375-13.437-8.125-18.187-14.25l16.875-20.25c7.125 9.625 15.25 14.437 24.375 14.437 12.375 0 18.562-7.25 18.562-21.75v-62.437h-46.124v-24.375h76.312v85.125c0 16.125-4 28.25-12 36.375-8 8-19.75 12-35.25 12z" fill="#100808"/></svg>