<?xml version="1.0" standalone="no"?>
<!DOCTYPE svg PUBLIC "-//W3C//DTD SVG 20010904//EN"
 "http://www.w3.org/TR/2001/REC-SVG-20010904/DTD/svg10.dtd">
<svg version="1.0" xmlns="http://www.w3.org/2000/svg"
 width="512.000000pt" height="512.000000pt" viewBox="0 0 512.000000 512.000000"
 preserveAspectRatio="xMidYMid meet">
<metadata>
Created by potrace 1.14, written by Peter Selinger 2001-2017
</metadata>
<g transform="translate(0.000000,512.000000) scale(0.100000,-0.100000)"
fill="#000000" stroke="none">
<path d="M1785 4454 c-251 -36 -424 -115 -653 -299 -43 -34 -161 -163 -206
-223 -111 -149 -200 -375 -221 -557 -3 -27 -8 -63 -10 -80 -25 -191 -25 -1255
0 -1495 3 -25 8 -70 11 -100 16 -153 93 -357 191 -510 100 -154 316 -344 503
-442 85 -44 230 -93 335 -113 142 -27 403 -27 530 -1 269 56 472 161 645 335
172 173 285 378 364 663 9 31 16 59 16 62 0 4 -133 5 -296 4 l-297 -3 -31 -60
c-114 -217 -257 -352 -445 -419 -80 -28 -96 -30 -226 -31 -120 0 -150 3 -210
23 -194 65 -360 202 -442 367 -44 88 -57 129 -74 245 -5 36 -11 79 -14 95 -18
121 -25 763 -12 1060 8 161 9 175 28 297 6 37 10 69 9 70 -4 7 53 152 73 186
90 157 253 289 417 338 82 24 88 25 195 29 103 4 201 -10 285 -40 121 -43 257
-153 336 -272 41 -61 104 -194 104 -217 0 -18 -9 -18 365 -16 126 0 231 3 233
5 5 5 -6 51 -41 170 -99 344 -357 664 -652 809 -85 42 -213 88 -280 101 -177
35 -370 42 -530 19z"/>
<path d="M3769 4433 c-1 -5 -2 -858 -3 -1898 l-1 -1890 95 -5 c52 -3 180 -3
284 0 l189 5 0 1880 c-1 1034 -2 1888 -2 1898 -1 16 -21 17 -281 17 -154 0
-281 -3 -281 -7z"/>
</g>
</svg>
