<?xml version="1.0" standalone="no"?>
<!DOCTYPE svg PUBLIC "-//W3C//DTD SVG 20010904//EN"
 "http://www.w3.org/TR/2001/REC-SVG-20010904/DTD/svg10.dtd">
<svg version="1.0" xmlns="http://www.w3.org/2000/svg"
 width="645.000000pt" height="645.000000pt" viewBox="0 0 645.000000 645.000000"
 preserveAspectRatio="xMidYMid meet">
<metadata>
Created by potrace 1.14, written by Peter Selinger 2001-2017
</metadata>
<g transform="translate(0.000000,645.000000) scale(0.100000,-0.100000)"
fill="#000000" stroke="none">
<path d="M2519 6286 c-2 -2 -29 -7 -59 -11 -30 -3 -83 -13 -116 -20 -34 -8
-73 -16 -85 -19 -13 -2 -35 -9 -49 -14 -14 -5 -29 -11 -35 -12 -5 -1 -20 -6
-33 -11 -13 -5 -29 -9 -36 -9 -6 0 -46 -18 -89 -40 -42 -22 -77 -38 -77 -34 0
3 -7 -2 -16 -10 -8 -9 -20 -14 -25 -11 -5 4 -9 2 -9 -2 0 -5 -27 -23 -60 -41
-33 -19 -60 -38 -60 -43 0 -5 -5 -9 -11 -9 -6 0 -32 -17 -57 -37 -45 -36 -153
-133 -148 -133 1 0 -25 -28 -59 -63 -78 -82 -115 -128 -115 -143 0 -7 -3 -14
-7 -16 -12 -5 -53 -66 -53 -78 0 -5 -4 -10 -10 -10 -5 0 -9 -3 -8 -7 1 -5 -13
-39 -31 -78 -18 -38 -45 -99 -59 -135 -28 -70 -42 -85 -85 -94 -46 -9 -140
-58 -170 -88 -16 -15 -33 -28 -38 -28 -5 0 -9 -5 -9 -11 0 -6 -6 -17 -13 -24
-30 -34 -44 -59 -80 -145 -39 -89 -57 -340 -33 -450 17 -75 104 -210 136 -210
6 0 10 -7 10 -17 0 -9 3 -14 6 -10 15 14 133 -65 140 -93 7 -33 115 -262 127
-271 5 -3 8 -9 8 -13 -3 -20 0 -26 9 -21 6 3 10 -5 10 -19 0 -14 6 -29 13 -33
13 -8 16 -14 67 -101 17 -29 37 -55 45 -58 8 -4 13 -10 10 -14 -2 -4 6 -19 19
-33 38 -41 39 -55 5 -88 -16 -16 -34 -27 -40 -24 -5 4 -9 1 -9 -5 0 -6 -5 -8
-10 -5 -6 3 -10 3 -10 -2 0 -9 -62 -47 -73 -45 -4 1 -7 -5 -7 -14 0 -8 -4 -12
-10 -9 -5 3 -15 -3 -22 -15 -7 -11 -16 -20 -21 -20 -9 0 -127 -115 -127 -124
0 -5 -27 -37 -72 -87 -10 -10 -15 -19 -12 -19 3 0 -1 -7 -8 -15 -27 -30 -38
-44 -38 -51 0 -3 -10 -20 -22 -37 -13 -18 -22 -33 -21 -34 5 -5 -32 -78 -42
-85 -5 -4 -7 -8 -3 -8 4 0 -4 -24 -16 -52 -38 -86 -73 -251 -82 -388 -3 -41
-10 -100 -16 -130 -6 -30 -12 -62 -13 -70 -1 -8 -5 -22 -8 -30 -24 -61 -37
-280 -22 -370 4 -25 8 -54 10 -65 5 -36 37 -119 56 -147 11 -14 19 -30 19 -36
0 -9 62 -95 90 -123 86 -88 225 -141 348 -134 64 4 150 38 189 75 l33 31 -4
-53 c-8 -92 -34 -159 -79 -201 -22 -20 -44 -37 -48 -37 -14 0 -71 -55 -98 -95
-57 -82 -78 -190 -59 -300 10 -53 46 -135 60 -135 4 0 7 -3 5 -8 -3 -10 89
-102 102 -102 6 0 19 -10 31 -22 11 -12 20 -18 20 -14 0 4 12 -1 28 -12 83
-59 290 -93 492 -80 103 7 150 13 158 18 2 3 1 2 57 15 22 5 42 9 45 10 3 1
25 7 50 14 59 17 182 77 209 102 12 11 21 17 21 14 0 -3 15 9 33 27 18 18 31
36 29 41 -2 4 2 7 7 7 6 0 11 5 11 11 0 6 9 23 19 37 10 15 19 30 20 34 2 10
11 39 19 58 3 8 7 20 7 25 3 18 16 69 22 85 8 18 7 16 18 65 4 22 10 47 12 55
2 8 6 31 8 50 3 19 11 38 18 42 9 6 9 8 0 8 -7 0 -10 6 -7 14 8 21 48 8 88
-29 20 -18 36 -30 36 -27 0 3 32 -27 70 -67 39 -40 70 -77 70 -81 0 -5 6 -15
13 -22 18 -18 55 -97 62 -133 6 -29 8 -44 19 -139 3 -25 9 -58 12 -73 10 -39
54 -123 65 -123 5 0 8 -4 6 -9 -4 -15 86 -92 142 -121 79 -40 100 -48 156 -61
28 -6 59 -13 70 -16 28 -7 102 -15 152 -17 24 0 43 -5 43 -9 0 -5 4 -6 9 -2 5
3 54 8 108 10 96 6 116 8 178 20 17 3 39 8 50 10 11 2 31 8 45 13 14 5 27 10
30 10 12 2 49 16 100 40 30 14 61 27 67 28 7 1 20 9 29 18 8 9 19 16 24 16 11
0 111 97 127 123 26 46 58 113 61 132 10 62 2 159 -19 217 -12 35 -27 66 -33
70 -6 4 -7 8 -2 8 5 0 -3 12 -18 26 -18 19 -23 30 -16 39 5 6 6 16 1 21 -5 5
-11 52 -15 104 -5 84 -11 135 -16 135 -2 0 -10 35 -15 73 -3 18 -9 41 -14 50
-4 9 -11 31 -14 47 -3 17 -15 50 -26 75 -11 25 -19 48 -18 51 1 3 -4 13 -12
22 -7 10 -10 17 -5 17 5 0 1 5 -9 11 -9 6 -15 14 -12 20 4 5 1 9 -4 9 -6 0
-11 6 -11 13 0 7 -9 23 -20 35 -11 12 -20 24 -20 28 0 4 -16 22 -35 40 -18 19
-31 34 -28 34 3 0 1 6 -4 12 -5 7 -8 42 -6 78 6 150 6 309 -1 365 -4 33 -9 74
-12 90 -10 84 -15 76 60 102 39 12 78 23 88 23 10 0 18 5 18 10 0 6 8 10 18
10 10 0 22 3 26 7 4 5 11 9 14 9 25 5 52 18 52 24 0 4 14 10 31 14 17 3 28 10
25 15 -3 5 5 12 19 15 14 4 35 15 48 26 12 11 25 18 29 17 4 -1 14 7 22 18 9
11 16 17 16 13 0 -5 8 0 18 10 10 9 30 26 44 37 46 36 132 120 163 159 17 20
37 45 46 54 31 34 76 98 100 142 13 25 26 47 29 50 3 3 6 12 8 20 2 8 8 17 13
18 5 2 9 11 9 21 0 9 4 21 9 27 7 7 41 100 46 124 1 3 5 24 9 47 5 29 16 47
34 59 15 10 28 17 29 16 2 0 18 5 38 14 19 8 35 12 35 8 0 -3 12 3 28 14 15
11 44 27 65 37 20 9 37 21 37 26 0 5 6 9 14 9 19 0 127 101 120 112 -3 4 3 8
12 8 10 0 14 3 11 7 -4 3 -1 14 7 22 24 27 77 159 79 199 1 20 6 42 10 49 4 6
3 14 -3 18 -7 4 -7 12 0 24 5 10 7 21 4 24 -3 3 -2 12 2 19 10 16 13 30 19 87
3 25 10 48 17 53 8 5 9 8 2 8 -6 0 -10 10 -10 23 1 12 -3 41 -10 64 -6 23 -9
44 -6 47 3 4 0 6 -7 6 -7 0 -9 5 -6 10 3 6 1 10 -4 10 -6 0 -11 7 -11 15 0 8
-4 15 -10 15 -5 0 -10 5 -10 12 0 6 -8 20 -17 31 -13 15 -15 21 -5 24 6 3 10
8 7 13 -3 5 0 14 7 22 28 29 69 88 61 88 -4 0 -3 4 2 8 15 10 67 92 59 92 -4
0 0 8 8 18 14 15 56 113 73 170 22 75 5 222 -29 244 -6 4 -7 8 -2 8 17 0 -49
55 -87 73 -37 18 -164 29 -170 15 -1 -3 -11 -8 -22 -10 -11 -1 -26 -9 -33 -15
-7 -7 -20 -13 -28 -13 -8 0 -14 -4 -14 -10 0 -5 -6 -10 -13 -10 -8 0 -22 -9
-32 -20 -10 -11 -22 -17 -27 -14 -4 3 -7 1 -6 -5 2 -5 -13 -21 -32 -36 -32
-24 -36 -24 -47 -8 -7 9 -13 26 -13 37 0 46 -68 186 -90 186 -6 0 -10 7 -10
16 0 8 -4 12 -10 9 -5 -3 -10 -2 -10 4 0 12 -78 48 -119 54 -47 8 -122 -11
-160 -40 -20 -16 -39 -27 -43 -25 -5 1 -8 -5 -8 -13 0 -7 -7 -18 -15 -22 -18
-10 -96 -164 -89 -175 3 -4 0 -8 -7 -8 -7 0 -10 -3 -7 -6 7 -6 -20 -92 -33
-110 -5 -6 -10 -19 -12 -30 -1 -10 -6 -25 -10 -31 -5 -7 -5 -13 -1 -13 3 0 1
-7 -6 -15 -7 -8 -9 -15 -5 -15 4 0 2 -7 -5 -15 -7 -9 -10 -18 -7 -21 3 -4 0
-23 -7 -43 -8 -20 -22 -67 -32 -106 l-18 -70 -7 40 c-4 22 -13 72 -20 110 -6
39 -16 76 -22 83 -5 6 -7 12 -4 12 3 0 -7 27 -24 60 -16 33 -34 60 -40 60 -6
0 -8 4 -5 8 6 10 -74 88 -86 84 -4 -1 -8 3 -8 8 0 6 -16 18 -35 27 -34 16 -46
39 -61 118 -10 55 -29 121 -36 130 -4 5 -8 17 -8 26 0 10 -5 30 -12 46 -6 15
-11 31 -10 36 1 4 -2 7 -8 7 -6 0 -9 3 -9 8 1 4 0 10 -1 15 -1 4 -3 10 -4 15
-5 24 -81 172 -88 172 -5 0 -7 4 -3 9 3 5 -2 16 -10 24 -8 9 -15 20 -15 25 0
6 -3 12 -7 14 -5 2 -24 27 -43 55 -19 29 -38 53 -42 53 -5 0 -8 4 -8 10 0 12
-41 59 -94 109 -93 88 -110 101 -123 101 -8 0 -11 5 -8 10 3 6 -1 10 -9 10 -9
0 -16 5 -16 10 0 6 -4 10 -10 10 -5 0 -26 12 -47 26 -34 23 -172 92 -198 99
-38 11 -55 19 -55 27 0 5 -3 7 -7 5 -5 -3 -19 0 -33 6 -32 13 -36 14 -90 27
-25 6 -52 13 -60 17 -8 4 -22 8 -30 9 -8 1 -37 7 -65 14 -45 11 -477 25 -486
16z"/>
</g>
</svg>
